<?xml version="1.0" encoding="utf-8"?>
<!-- Generator: Adobe Illustrator 22.1.0, SVG Export Plug-In . SVG Version: 6.00 Build 0)  -->
<svg version="1.1" id="Layer_1" xmlns="http://www.w3.org/2000/svg" xmlns:xlink="http://www.w3.org/1999/xlink" x="0px" y="0px"
	 width="428.4px" height="121.4px" viewBox="0 0 428.4 121.4" style="enable-background:new 0 0 428.4 121.4;" xml:space="preserve"
	>
<style type="text/css">
	.st0{fill-rule:evenodd;clip-rule:evenodd;fill:#003DA6;}
	.st1{fill-rule:evenodd;clip-rule:evenodd;fill:#003DA6;stroke:#003DA6;stroke-width:0.4501;}
	.st2{fill-rule:evenodd;clip-rule:evenodd;fill:none;stroke:#003DA6;stroke-width:0.4501;}
	.st3{fill-rule:evenodd;clip-rule:evenodd;fill:#FFFFFF;}
	.st4{fill-rule:evenodd;clip-rule:evenodd;fill:#F5333F;}
	.st5{fill:#FFFFFF;}
</style>
<polygon class="st0" points="238.9,58.2 249.5,58.2 248.4,63.3 237.9,63.3 "/>
<path class="st0" d="M100.8,48c-1.9-0.9-4.3-1.6-6.6-1.6c-2.2,0-5.3,0.9-5.3,3.6c0,5,10.7,4.7,10.7,13.3c0,7.6-6,10.4-13,10.4
	c-3,0-6.2-0.7-9-1.8l1.7-5.3c2.4,1.1,5,2.1,7.7,2.1c3,0,6-1.5,6-4.8c0-5.6-10.8-4.7-10.8-13c0-6.5,5.8-9.4,11.8-9.4
	c2.8,0,5.6,0.4,8.2,1.4L100.8,48z"/>
<polygon class="st1" points="105.6,48.2 110.6,48.2 108.5,58.1 118.4,58.1 120.5,48.2 125.5,48.2 120.3,72.6 115.4,72.6 117.7,61.9 
	107.6,61.9 105.4,72.6 100.4,72.6 "/>
<polygon class="st1" points="129.7,48.2 144.3,48.2 143.6,52.1 133.9,52.1 132.6,58.1 141.3,58.1 140.5,61.9 131.8,61.9 130.4,68.8 
	140.2,68.8 139.3,72.6 124.5,72.6 "/>
<g>
	<path class="st0" d="M155.3,48.2c4.3,0,9,0.3,9,5.8c0,4.2-3.2,6.5-7.2,6.5v0.1c1.3,0.1,2.2,0.9,2.5,2.2l2.4,9.8h-5.2l-1.3-5.7
		c-0.1-0.5-0.1-1-0.2-1.4v-7c2-0.4,3.9-1.5,3.9-3.9c0-2.4-2-2.5-3.9-2.5V48.2z M148.6,48.2h5.9h0.8v3.9h-0.4h-2.1l-1.3,6.5h1.8
		c0.6,0,1.3,0,2-0.1v7c-0.4-1.8-0.7-3-2.9-3h-1.9l-2.2,10.1h-5L148.6,48.2z"/>
	<path class="st2" d="M148.6,48.2h5.9c4.6,0,9.8-0.1,9.8,5.8c0,4.2-3.2,6.5-7.2,6.5v0.1c1.3,0.1,2.2,0.9,2.5,2.2l2.4,9.8h-5.2
		l-1.3-5.7c-0.6-2.6-0.4-4.4-3.1-4.4h-1.9l-2.2,10.1h-5L148.6,48.2L148.6,48.2z M151.5,58.6h1.8c2.6,0,5.9-0.8,5.9-4
		c0-2.5-2.2-2.5-4.3-2.5h-2.1L151.5,58.6z"/>
</g>
<polygon class="st1" points="167.2,48.2 172.2,48.2 172.9,66.9 173,66.9 181.2,48.2 187.9,48.2 188,66.9 188.1,66.9 196.9,48.2 
	202,48.2 190.1,72.6 184,72.6 183.7,53.2 183.6,53.2 174.9,72.6 168.7,72.6 "/>
<polygon class="st1" points="204.6,48.2 209.8,48.2 204.6,72.6 199.5,72.6 "/>
<polygon class="st1" points="214.4,48.2 220.7,48.2 226,66.8 226,66.8 230.1,48.2 234.7,48.2 229.4,72.6 223,72.6 217.8,53.9 
	217.8,53.9 213.8,72.6 209.1,72.6 "/>
<g>
	<polygon class="st0" points="253.1,41.9 259,41.9 259.9,65.7 260,65.7 269.8,41.9 277.7,41.9 277.9,65.7 277.9,65.7 288.3,41.9 
		294.5,41.9 280.4,73 273,73 272.8,48.2 272.7,48.2 262.2,73 254.9,73 	"/>
	<polygon class="st1" points="294.1,48.3 299,48.3 294.1,72.6 289.3,72.6 	"/>
	<polygon class="st1" points="303.3,48.3 307.9,48.3 303.8,68.8 312.8,68.8 312,72.6 298.4,72.6 	"/>
	<polygon class="st1" points="319.7,48.3 324.4,48.3 320.3,68.8 329.4,68.8 328.5,72.6 314.9,72.6 	"/>
	<polygon class="st1" points="336.1,48.3 340.9,48.3 336,72.6 331.2,72.6 	"/>
	<g>
		<path class="st0" d="M352.4,48.3h5.1l4.2,24.3h-4.6l-0.8-5.6h-4.1v-3.9h3.5l-1.4-10.6h-0.1l-2,3.8v-7.6L352.4,48.3z M352.2,67
			h-5.6l-2.9,5.6h-5.1l13.7-23.8v7.6l-3.6,6.8h3.6V67z"/>
		<path class="st2" d="M352.4,48.3h5.1l4.2,24.3h-4.6l-0.8-5.6h-9.7l-2.9,5.6h-5.1L352.4,48.3L352.4,48.3z M348.6,63.2h7.1
			l-1.4-10.6h-0.1L348.6,63.2z"/>
	</g>
	<polygon class="st1" points="369.1,48.3 376.8,48.3 378.3,65.8 378.4,65.8 387.4,48.3 395.2,48.3 390.2,72.6 385.3,72.6 
		389.7,52.4 389.6,52.4 379.2,72.6 374.7,72.6 372.9,52.4 372.8,52.4 368.6,72.6 364.2,72.6 	"/>
	<path class="st1" d="M410.5,52.9c-1.3-0.7-3.1-1.3-4.8-1.3c-1.7,0-3.9,0.7-3.9,2.8c0,3.9,7.9,3.6,7.9,10.5c0,6-4.5,8.1-9.5,8.1
		c-2.2,0-4.5-0.6-6.5-1.4l1.2-4.1c1.8,0.9,3.6,1.7,5.6,1.7c2.2,0,4.4-1.2,4.4-3.8c0-4.4-7.9-3.7-7.9-10.2c0-5.1,4.1-7.4,8.6-7.4
		c2,0,4.1,0.3,6,1.1L410.5,52.9z"/>
	<path class="st0" d="M414.7,66.1c1.9,0,3.4,1.5,3.4,3.4c0,1.9-1.5,3.4-3.4,3.4l0,0v-0.8l0,0c1.3,0,2.5-1.1,2.5-2.7
		c0-1.6-1.1-2.7-2.5-2.7l0,0V66.1L414.7,66.1L414.7,66.1z M414.7,70.1l0.7,1.3h0.8l-1-1.7c0.6,0,1-0.3,1-1c0-0.8-0.6-1.1-1.5-1.1
		l0,0v0.6l0,0c0.4,0,0.7,0.1,0.7,0.5c0,0.4-0.2,0.5-0.6,0.5h-0.1V70.1z M414.7,72.9c-1.9,0-3.4-1.5-3.4-3.4c0-1.9,1.5-3.4,3.4-3.4
		v0.8c-1.4,0-2.5,1.1-2.5,2.7c0,1.6,1.1,2.7,2.5,2.7V72.9L414.7,72.9z M414.7,67.6h-1.4v3.8h0.8v-1.6h0.4l0.2,0.3v-0.9h-0.6v-1h0.6
		V67.6z"/>
</g>
<polygon class="st3" points="22.9,121 22.1,121 21.4,120.8 21,120.6 20.5,120.3 19.9,119.8 19.5,119.3 19.2,118.8 19,118.2 
	18.8,117.3 18.8,116.8 18.8,115.8 18.8,115.6 18.8,115.3 18.8,114.5 19.1,113.5 19.1,113.3 19.3,112.5 19.6,110.5 20.1,108.4 
	20.2,108.1 20.2,107.9 20.3,107.6 20.3,107.2 20.5,106.7 20.5,106.3 20.5,106.2 20.1,106.1 17.7,105 16.5,104.4 16.2,104.1 
	15.5,103.7 14.8,103.3 14.6,103.2 13.4,102.3 12.7,101.8 11.5,100.7 11.2,100.4 11.1,100.4 11.1,100.5 11.3,101.7 11.5,102.2 
	11.8,103.5 11.8,103.7 12,104.2 12.2,105.6 12.7,107.4 13.2,109.8 13.2,110.2 13.2,110.7 13.3,111.4 13.3,112.1 13.2,113.2 
	12.9,114 12.7,114.7 12.2,115.6 11.5,116.1 10.9,116.5 10.2,116.7 9.7,116.8 9,116.8 8.3,116.7 7.6,116.4 7.1,116.1 6.7,115.8 
	6.1,115.2 5.8,114.7 5.5,114 5.4,113.6 5.3,113 5.3,111.5 5.5,109.7 5.9,107.9 6,107.4 6.2,106.4 6.3,106 6.5,105.2 6.5,105.1 
	6.4,105.1 5.8,105.3 5.1,105.5 4.7,105.6 4,105.5 3.4,105.4 3.1,105.3 2.4,104.8 2.1,104.6 1.9,104.2 1.4,103.5 1.2,102.7 1,101.9 
	1,101.5 1,101.4 1,100.4 1.1,99.1 1.2,98.3 1.4,97.6 1.9,95.2 2.4,93.1 2.5,91.8 2.5,91.2 2.5,90.6 2.5,90.4 2.6,89.4 2.4,88 
	2,85.8 1.9,85.4 1.6,84 1.4,83.5 1.2,82.6 1,81 1,80.5 0.9,80.2 0.7,78.3 0.7,76.6 0.7,76.4 0.7,74.8 0.7,74.3 0.7,73.8 1,71.1 
	1.2,70 1.6,68.5 1.9,67.5 2.1,67 2.5,65.6 3.1,64 3.1,63.7 3.5,62.9 3.6,62.6 4.3,61.1 4.4,60.9 4.5,60.6 5.7,58.7 6.9,56.7 
	7.3,56.3 7.5,55.8 8.2,55 8.5,54.8 9.7,53.4 9.9,53.2 10.1,53 10.3,52.8 10.7,52.4 10.8,52.2 11.6,51.5 13.3,50.1 14.1,49.4 
	14.5,49.2 14.6,49.1 14.6,48.9 14.4,48.2 14.4,47.8 14.4,47.1 14.4,46.8 14.4,46.6 14.5,46.1 14.7,45.5 15.1,44.7 15.5,44 
	16.2,43.3 16.5,43.1 16.5,43 16.2,42.4 16.1,41.9 16,41.4 16,40.8 16.1,40.2 16.3,39.8 16.6,39.2 17.1,38.6 17.4,38.2 18.1,37.6 
	18.9,37.2 19.6,36.9 20.5,36.6 21.4,36.5 21.4,36.5 21.4,36.3 21.4,36.1 21.4,35.5 21.4,35.1 21.6,34.6 21.8,34.2 22.3,33.6 
	22.7,33.2 23.1,33 23.7,32.8 24.1,32.7 24.9,32.7 25.5,32.9 26.5,33.2 27.1,33.5 27.8,33.9 28.2,34.2 28.5,34.6 28.6,34.6 
	28.7,34.6 28.7,34.4 28.4,33.4 28.2,32.9 28,32.5 27.9,32.4 27.3,32 27.2,31.8 27,31.5 27,30.9 26.8,30.6 26.6,30.3 26.3,30.1 
	26.1,29.9 25.9,30 25.6,30.2 25.4,30.2 25.1,30 24.8,29.7 24.7,29.7 24.5,29.9 24.2,30 24.1,30 23.8,29.7 23.4,29.3 22.6,28.4 
	21.7,27.1 21.6,26.9 20.9,25.9 20.1,24.2 20,23.8 19.8,23.5 19.5,22.8 19.4,22.6 19.2,22.2 18.8,21.6 18.5,21.2 17.2,19.8 
	17.1,19.6 16.9,19.5 16.3,18.9 16,18.6 15.8,18.4 15.4,18.2 15,18.2 14.6,18.1 14.4,17.9 14.3,17.7 14.1,16.9 13.9,16.5 13.9,15.3 
	14.1,14.5 14.2,13.9 14.6,12.8 15,11.9 15.2,11.6 15.6,10.7 16.2,9.8 16.5,9.2 16.7,9 17.9,7.4 18.8,6.3 19.1,6 19.5,5.7 20,5.2 
	20.2,5 20.7,4.5 20.9,4.3 21.3,4.1 22.8,2.9 23.5,2.4 24,2.2 25.4,1.4 25.6,1.2 26.1,1 27.2,0.6 28.3,0.3 29,0.3 30.3,0.3 31.1,0.4 
	31.7,0.7 32,1 32.2,1.2 32.3,1.6 32.3,2 32.3,2.2 32.3,2.4 32.5,2.6 33.3,3.6 33.6,3.8 34.1,4.5 34.8,5.2 35,5.5 35.3,5.8 35.6,6.2 
	36.2,6.4 36.7,6.7 37.5,7.1 38.4,7.6 39.5,8.3 40.8,9.3 42.6,10.9 43.3,11.7 43.7,12.2 43.7,12.3 43.7,12.5 43.3,12.9 43.1,13 
	43,13.2 43.2,13.5 43.5,13.9 43.6,13.9 43.6,14.2 43.5,14.5 43.4,14.6 43.4,14.8 43.8,15.1 44.2,15.5 44.5,15.6 44.9,15.7 
	45.3,15.8 45.5,16 45.7,16.3 45.8,16.7 45.9,17 45.8,17.8 45.4,19.1 44.8,20.3 44.2,21.4 43.7,22.2 43.5,22.4 43.5,22.4 43.1,23 
	42.9,23.3 42.2,24.3 40.9,25.7 40.4,26.2 40.1,26.5 38.3,28.2 37.2,29 36.5,29.5 36.2,29.7 36,29.9 36,30.1 36,34.5 36,34.6 
	36.2,34.6 36.9,33.9 37.6,33.4 38.3,33.1 38.6,33 39,32.8 39.7,32.7 40.4,32.8 41,32.9 41.7,33.1 42.3,33.5 42.8,33.9 43.2,34.6 
	43.5,35.1 43.7,35.7 43.7,36.1 43.6,36.7 43.6,36.8 43.7,36.8 44.2,36.9 45,37 45.5,37.4 45.9,37.7 46.3,38.1 46.8,38.8 46.9,39.1 
	47.1,39.8 47.1,40.2 47,40.8 46.8,41.4 46.5,41.7 46.4,41.9 46.4,41.9 46.8,42.2 47,42.3 47.5,42.6 48.4,43.4 48.7,43.8 48.9,44.1 
	49.1,44.5 49.6,45.3 49.8,46 49.9,46.4 49.9,47.3 49.8,47.6 49.7,48 49.5,48.2 49.4,48.5 49.4,48.5 49.6,48.7 50,48.9 51,49.7 
	52.2,50.6 52.7,51 53.1,51.3 53.6,51.9 53.9,52.1 54.1,52.3 54.3,52.4 54.8,52.9 55,53.1 55.2,53.4 55.7,53.7 56.6,54.8 56.7,54.8 
	56.9,55 57.1,55.4 57.8,56.1 57.9,56.4 58.1,56.6 59.2,58.1 59.4,58.5 59.8,59.2 60.2,59.9 60.4,60.2 60.6,60.5 60.6,60.7 
	61.1,61.4 61.5,62.3 61.7,62.7 62.3,64.3 62.4,64.4 62.6,65 63.3,67 63.3,67.2 63.5,67.8 63.7,68.1 63.7,68.4 64.2,70.7 64.2,71.4 
	64.4,72.4 64.4,72.5 64.4,73 64.4,73.4 64.6,75.2 64.6,75.4 64.6,75.5 64.6,75.7 64.6,76.2 64.6,76.5 64.6,77.5 64.5,78 64.5,79.1 
	64.3,81.7 63.9,84.3 63.5,86.8 63.5,88.4 63.6,89.6 63.5,89.9 63.6,90.3 63.7,91.9 63.7,92.4 63.7,92.6 63.7,93.6 63.6,94.1 
	63.5,94.9 63.4,95.9 63,97.3 62.2,100.2 61.9,101 61.8,101.3 61.9,102 62,103.2 62,103.4 62.1,103.7 62.2,104.4 62.3,105.2 
	62.6,106.7 63,108.1 63,108.4 63.1,109 63.4,111 63.7,112.8 63.7,113.5 63.7,114.5 63.5,114.9 63.2,115.8 62.9,116.2 62.4,116.8 
	62,117 61.3,117.3 60.6,117.5 60.2,117.6 59.7,117.6 59.2,117.5 58.4,117.2 57.8,116.8 57.3,116.3 57.1,115.9 56.7,115.2 
	56.5,114.5 56.5,114.2 56.4,113.5 56.4,113.3 56.4,113.1 56.5,112.3 56.8,110.9 57.3,109 57.8,107.5 58.5,105 58.5,104.7 
	58.8,103.8 58.9,103.4 59,102.8 59.1,102.4 59.3,101.6 59.4,100.8 59.2,99.9 59.2,99.7 59,99.2 58.9,98.6 58.8,98.3 58.5,97.2 
	58.3,96.9 58.2,96.4 58,96.1 58,95.9 57.9,95.9 57.8,95.9 57.1,96.9 55.9,98.3 55.3,98.9 55,99.2 54.7,99.6 54.3,99.9 53.9,100.3 
	53.4,100.8 52.3,101.6 52.1,101.8 51.5,102.2 51.2,102.5 50.8,102.7 50.5,103 48.2,104.4 46.5,105.3 46.1,105.5 44.9,106.1 
	44.7,106.2 44,106.5 43.7,106.6 42.5,106.9 39.3,107.8 36.7,108.3 35.5,108.4 34.1,108.6 33.1,108.6 31.7,108.6 30.5,108.5 
	29.2,108.4 28.7,108.3 28.2,108.2 26.8,108 26.2,107.9 25.4,107.7 25.2,107.7 25.2,107.8 25.4,109 25.6,110.6 25.8,111 26.1,112.6 
	26.3,113.4 26.3,113.8 26.3,114 26.4,114.4 26.5,115.2 26.6,116.8 26.5,117.5 26.3,118.2 26.2,118.7 25.8,119.4 25.5,119.7 
	25.2,120.1 24.7,120.5 24.4,120.7 23.8,120.8 23.3,121 "/>
<polygon class="st0" points="22.7,119.7 22.2,119.6 21.6,119.5 21.3,119.3 20.9,118.9 20.5,118.4 20.2,117.9 20,117.3 20,116.8 
	20,116.1 20.1,114.9 20.5,112.5 21.2,109.3 21.6,106.8 21.8,105.6 21.7,105.5 21.4,105.3 20.1,104.8 18.2,103.9 16.1,102.6 
	14.8,101.8 13.2,100.5 12.2,99.6 11.1,98.5 10.2,97.6 9,96.1 8.7,95.8 8.2,95.1 6.9,93.3 6.7,93 6.2,92.3 6.1,92.2 6.1,92.2 
	6.1,92.7 6.2,93.9 6.5,95.6 7.1,98.5 7.3,99.7 7.3,100.8 7.3,101.5 7.2,102.1 7,102.7 6.8,103 6.5,103.4 6.1,103.9 5.7,104.1 
	5.2,104.3 4.8,104.4 4.3,104.4 3.9,104.2 3.5,104.1 3.1,103.7 2.8,103.4 2.5,102.9 2.3,102.2 2.1,101.3 2.1,100.2 2.2,99.2 
	2.7,96.9 3.2,94.8 3.4,93.9 3.5,93.2 3.5,93 3.6,91.9 3.7,89.8 3.6,88.4 3.5,88 3.5,87.4 3.3,86.1 3.2,85.7 2.8,83.8 2.3,82 
	1.9,79.5 1.9,77.6 1.9,76.2 1.9,76 1.9,75.2 1.9,74.2 1.9,73.9 2,73.1 2.3,71.3 2.6,69.6 2.9,68.1 3.5,66.3 3.9,65.1 4.7,63.1 
	5.4,61.5 6.4,59.8 6.9,58.9 8,57.4 9.1,55.8 10.1,54.7 10.3,54.5 10.6,54.1 11.8,52.9 12,52.7 13.1,51.7 14.6,50.6 15.3,50.1 
	16.1,49.5 16.2,49.4 16.1,49.3 15.8,48.7 15.7,48.2 15.5,47.5 15.6,46.9 15.8,46.1 16,45.5 16.5,44.8 16.9,44.2 17.8,43.5 
	18.2,43.1 18.3,43 18.2,42.9 17.9,42.6 17.6,42.1 17.4,41.8 17.3,41.5 17.3,40.9 17.4,40.5 17.6,39.9 17.9,39.5 18.3,39.1 
	18.6,38.7 19.3,38.3 19.9,38.1 20.7,37.8 21.6,37.6 22.3,37.6 23,37.6 23,37.5 23,37.4 22.8,37.2 22.6,36.7 22.5,36.2 22.5,35.8 
	22.6,35.5 22.7,35.1 22.9,34.8 23.3,34.5 23.7,34.2 24.1,34.1 24.4,34 25.1,34 25.6,34.1 26.3,34.4 27,34.7 27.4,35 28.1,35.6 
	28.6,36.1 29.4,37.2 29.9,37.9 30.2,38.5 30.3,38.6 30.3,38.4 30.3,37.9 30.1,36.7 29.8,34.8 29.6,33.7 29.3,32.5 29.2,32 
	28.9,31.8 28.7,31.5 28.4,31.3 28.3,31.1 28.2,30.6 28.2,30.2 28,30 27.7,29.7 27.2,29.1 27,29 26.8,29 26.5,29 26.3,29 26,28.9 
	25.7,28.5 25.6,28.5 25.4,28.5 25,28.8 24.9,28.8 24.7,28.8 24.5,28.7 23.8,28 22.7,26.6 21.8,25 21.3,24.2 20.8,23.1 20.2,21.5 
	20,21.1 19.3,20.3 18.1,19 16.7,17.5 16.3,17.3 16.1,17.2 15.6,17.2 15.4,17 15.3,16.7 15.1,16.3 15.1,15.6 15.1,15.2 15.2,14.3 
	15.4,13.7 15.8,12.7 16.4,11.6 17.1,10.4 17.8,9.3 18.6,8.4 19.5,7.2 19.7,7.1 20.5,6.3 21.7,5.2 22.4,4.6 23.1,4.1 23.9,3.6 
	25.2,2.8 26.8,2 28,1.7 29,1.5 29.8,1.5 30.4,1.5 30.9,1.7 31.1,1.9 31.3,2 31.3,2.4 31.3,2.8 31.3,3 31.5,3.3 32.7,4.6 33.3,5.2 
	34.6,6.7 35.3,7.3 35.5,7.6 36.4,7.9 37.4,8.3 38.1,8.8 39.2,9.5 40.2,10.4 41.6,11.6 42.1,12.3 42.1,12.4 42.1,12.6 42,12.8 
	41.7,13.1 41.7,13.3 41.9,13.5 42.3,14 42.3,14.3 42.3,14.5 42.2,14.8 42.1,14.9 42.3,15.2 42.8,15.8 43.2,16 43.5,16.3 44,16.3 
	44.2,16.5 44.4,16.8 44.5,17 44.6,17.4 44.5,17.8 44.4,18.3 44.2,18.9 43.7,20 43,21.2 42.2,22.2 41.3,23.4 40.4,24.5 39.5,25.4 
	38.3,26.6 38,26.8 37.8,27.1 36.3,28.3 35,29.2 34.8,29.4 34.8,29.6 34.8,34.5 34.7,35.5 34.6,38.4 34.6,38.4 34.7,38.4 34.9,38.1 
	35.1,37.7 35.4,37.3 35.7,36.8 36.2,36.2 36.8,35.5 37,35.3 37.5,35 38.1,34.6 38.6,34.4 39.3,34.1 39.8,34 40.5,34.1 40.9,34.1 
	41.4,34.4 41.8,34.6 42.1,35.1 42.3,35.5 42.5,36 42.5,36.5 42.4,36.8 42.3,37.2 42.1,37.6 42.1,37.6 42.1,37.6 43,37.6 43.7,37.8 
	44.4,38.1 44.7,38.3 45.1,38.7 45.4,39.1 45.6,39.5 45.7,40 45.7,40.4 45.6,40.8 45.4,41.2 45.1,41.6 44.8,41.9 44.4,42.1 
	44.4,42.1 44.4,42.2 44.9,42.4 45.3,42.6 45.8,43 46.9,43.8 47.7,44.6 48.2,45.2 48.4,45.8 48.6,46.3 48.6,46.8 48.6,47.3 
	48.5,47.9 48.3,48.4 47.9,48.8 47.9,48.9 48,49.1 50.8,51 51.9,51.9 52.6,52.5 53.1,52.9 54.4,54.1 55.5,55.3 56.2,56.2 57,57.1 
	57.8,58.2 58.8,59.7 60.1,62.1 61.1,64.2 61.5,65.5 61.6,65.8 61.8,66.5 61.9,66.8 62.3,68.1 62.4,68.4 62.7,69.7 63,71.9 
	63.2,73.6 63.4,75.7 63.3,77.8 63.2,80.7 63,82.3 62.9,83 62.7,84.1 62.6,84.7 62.4,86.1 62.3,87.2 62.3,87.6 62.3,87.8 62.3,90 
	62.4,91.1 62.5,91.6 62.5,91.7 62.5,92.4 62.5,93 62.5,93.2 62.5,93.4 62.3,95.2 62,96.1 61.8,97.3 61.8,97.6 61.4,98.8 61,100 
	60.8,100.6 60.7,100.7 60.6,100.7 60.4,100.6 60.3,100.1 60.1,98.7 59.6,97.1 58.7,93.8 58.6,92.9 58.5,92.9 58.5,92.9 58.4,93 
	58,93.7 56.9,95.2 55.8,96.5 55.2,97.2 53.7,98.7 53.3,99.2 52.2,100.1 51.3,100.8 50,101.8 48.4,102.9 47,103.7 45.5,104.5 
	43.8,105.2 42.2,105.8 40.6,106.2 39.3,106.5 37.4,106.9 35.4,107.2 33.7,107.3 31.1,107.3 30.2,107.2 29.8,107.2 27.5,106.9 
	25.2,106.5 23.8,106.1 23.7,106.2 23.7,106.2 23.7,106.7 23.8,107 24,108.1 25,113.4 25.2,114.4 25.3,115.2 25.3,116.6 25.3,117.3 
	25.2,117.9 24.8,118.5 24.5,119 24.1,119.4 23.8,119.6 23.3,119.7 "/>
<polygon class="st4" points="22.8,118.4 22.5,118.4 22.1,118.2 21.7,118 21.4,117.7 21.2,117.2 21.1,116.6 21,116 21.2,114.7 
	21.4,113.5 21.6,112.5 21.6,112.3 21.9,110.7 22.2,108.8 22.3,108.5 22.3,107.9 22.6,106.5 22.7,106.4 22.8,106.5 22.9,107.4 
	23.1,109 23.8,112.6 23.9,113.3 24.1,114.5 24.2,115.5 24.2,116.3 24.1,117 24,117.5 23.7,117.9 23.5,118.2 23,118.3 "/>
<polygon class="st0" points="60.2,116.3 59.6,116.3 59.2,116.1 58.8,115.9 58.4,115.6 58,115.1 57.9,114.7 57.8,114.2 57.7,113.5 
	57.7,113.3 57.7,113.1 57.8,112.1 58.1,110.5 58.5,109.1 58.8,108.4 59,107.3 59.7,105.1 60.2,102.9 60.4,101.5 60.5,101.3 
	60.6,101.3 60.7,101.3 60.7,101.4 60.8,101.8 60.9,102.5 60.9,103.6 61.1,104.6 61.1,105.1 61.3,106.5 61.5,107.1 61.8,108.8 
	62.3,111.3 62.5,112.5 62.5,113.4 62.4,114.1 62.3,114.7 62,115.2 61.8,115.5 61.5,115.9 61.2,116.1 60.8,116.2 60.4,116.3 "/>
<polygon class="st0" points="9.5,115.4 8.9,115.4 8.3,115.3 7.8,115.1 7.5,114.8 7.2,114.5 6.8,114 6.7,113.5 6.6,113 6.5,112.1 
	6.5,111.5 6.6,110.2 7.1,108.2 7.5,106.5 7.8,105.2 8,104.2 8.1,103.6 8.3,102.8 8.8,100.4 9.2,98.1 9.2,97.6 9.3,97.5 9.4,97.5 
	9.4,97.5 9.5,97.7 9.7,99.1 10.1,101.3 10.8,104.8 11.1,106.2 11.2,106.3 11.3,107 11.5,108.3 11.7,109.1 12,110.6 12,111.6 
	12,112.6 11.8,113.2 11.6,113.9 11.4,114.2 11.1,114.6 10.9,114.8 10.8,114.9 10.2,115.2 9.8,115.4 "/>
<polygon class="st4" points="60.2,115.1 59.8,115 59.5,114.9 59.2,114.7 59,114.4 58.9,114 58.8,113.5 58.8,112.7 58.9,111.9 
	59,111.5 59.1,110.9 59.5,109 59.9,107.6 60.3,105.8 60.4,105.7 60.5,106 60.6,107.3 60.9,109.3 61.1,110.2 61.3,112.5 61.3,113.1 
	61.3,113.2 61.3,113.4 61.3,113.9 61.1,114.3 60.9,114.7 60.6,114.9 "/>
<polygon class="st4" points="9.2,114.1 8.8,114.1 8.5,114 8.2,113.8 7.9,113.5 7.7,113.1 7.5,112.6 7.5,112.3 7.5,111.6 7.6,110.5 
	8,108.6 8.7,106 9.4,102.5 9.5,102.5 9.6,102.6 9.7,104 9.9,105.3 10,105.8 10.4,107.9 10.5,108.9 10.6,109.5 10.7,110.7 
	10.7,111.8 10.6,112.7 10.4,113.1 10.1,113.5 9.9,113.8 9.5,114 "/>
<polygon class="st3" points="34.1,106.5 33.9,106.4 33.2,106.2 33,106 32.9,105.8 32.8,105.5 32.7,105.1 32.5,105.1 32.2,104.9 
	32.2,104.7 32.1,103.9 32,103.2 32,102.5 32,102.3 32.2,102.2 32.6,102.2 33,102.2 33.1,102.2 32.9,102.6 32.9,103.2 33,103.3 
	33.3,103.7 33.5,103.8 33.8,103.8 33.9,103.8 34.2,103.4 34.3,103.4 34.7,103.3 34.8,103.4 34.8,103.5 34.8,103.7 34.9,104 
	35,104.3 35,104.5 35,104.7 35,105 35.3,105.3 35.3,105.4 35.1,105.8 34.9,106 34.8,106.2 34.6,106.3 34.3,106.4 "/>
<polygon class="st3" points="28.9,106.4 28.6,106.4 28.3,106.3 28,106.3 28,106.2 28.2,106.2 29.1,105.8 29.4,105.7 29.6,105.5 
	29.7,105.1 29.9,105.1 30.2,105 30.5,105.1 30.6,105.1 30.5,105.1 30.4,105.2 30.1,105.3 29.9,105.5 29.9,105.8 29.7,106 "/>
<polygon class="st3" points="30.9,104.8 30.7,104.7 30.7,104.6 30.6,104.1 30.7,103.5 30.7,103.2 30.7,103 30.8,102.5 30.8,102.4 
	30.9,102.3 31.4,102.3 31.5,102.4 31.5,102.6 31.7,103.6 31.7,104.4 31.6,104.6 31.5,104.6 "/>
<polygon class="st4" points="38.6,103.6 38.3,103.6 38,103.4 37.7,103.2 37.6,102.9 37.3,102.2 37.2,101.5 37.1,100.8 37.3,99.6 
	37.5,98.4 37.6,98 37.6,97.8 37.7,97.4 38,96.4 38.1,96.1 38.5,94.2 38.5,93.4 38.6,93.4 38.7,93.6 38.8,94.5 39,95.6 39.3,96.7 
	39.5,97.3 39.7,98.3 40,99.6 40,100.4 40,101.6 39.9,102.2 39.7,102.8 39.5,103.2 39.2,103.4 38.8,103.5 "/>
<polygon class="st4" points="4.9,102.9 4.6,102.9 4.3,102.7 4,102.5 3.7,102.1 3.5,101.8 3.4,101.1 3.3,100.5 3.4,99.7 3.5,98.3 
	4,96 4.3,94.7 4.4,94.4 4.5,93.5 4.6,92.9 4.7,92.6 4.7,91.4 4.7,89.4 4.6,88.1 4.3,86.1 3.8,83.7 3.7,82.5 3.1,79.1 3.1,77.6 
	3.1,74.3 3.5,71 3.9,69.3 4.3,68 4.7,66.3 5.4,64.6 6.4,62.4 7.3,60.6 8.6,58.6 9.4,57.4 10.5,56.1 11.7,54.8 12.9,53.5 14.4,52.3 
	15.4,51.5 16.5,50.8 16.9,50.5 17.1,50.3 17.2,50.3 17.4,50.3 17.6,50.3 18.1,50.4 18.6,50.3 19.1,50.3 19.5,50.1 20,49.8 
	20.5,49.4 20.7,49.2 20.9,49.2 20.9,49.4 21.2,49.6 21.4,49.9 21.7,50.1 22.1,50.2 22.3,50.2 22.9,50.2 23.3,50.1 23.8,49.9 
	24.2,49.6 24.9,48.7 26.1,47.3 26.5,47 26.9,46.8 27.3,46.6 27.6,46.5 27.7,46.3 27.7,46.3 27.4,46.1 27.2,46.1 26.7,46.2 
	26.3,46.4 25.8,46.6 25.4,47 24.4,48 24,48.4 23.6,48.7 23.3,48.9 22.9,48.9 22.5,48.8 22.3,48.7 22.1,48.5 22,48.1 22,47.8 
	22.1,47.2 22.4,46.6 22.8,46.1 23.3,45.7 23.8,45.3 24.4,45 25.2,44.7 25.9,44.6 26.9,44.5 27.9,44.7 28.6,44.8 29.7,45.3 
	30.2,45.6 30.9,46.1 31.1,46.3 31.3,46.6 31.4,46.7 31.5,46.7 31.6,46.6 31.7,46.2 31.7,43.5 31.5,41.3 31.5,39.8 31.4,39.2 
	31.3,37.9 31.2,37.2 31,34.6 30.8,33.2 30.6,32.5 30.3,31.7 30.1,31.3 29.7,30.8 29.6,30.5 29.6,30.4 29.6,30 29.8,29.2 30.2,28.1 
	30.8,27.1 31.6,25.8 32.4,24.7 33.5,23.6 34.8,22.2 35.4,21.7 36,21.2 37.1,20.3 38.5,19.3 40,18.3 40.9,17.8 41.6,17.5 42.2,17.3 
	42.7,17.3 43,17.4 43.1,17.7 43.2,17.9 43,18.5 42.7,19.3 41.6,21.1 41,21.8 40.7,22.1 40.1,22.9 38.9,24.3 37.7,25.5 35.7,27.1 
	34.6,28 34,28.5 33.8,28.9 33.6,29.2 33.6,29.5 33.6,33.5 33.7,34.7 33.7,34.8 33.7,35.2 33.7,37.9 33.6,41.4 33.6,41.8 33.5,44.1 
	33.4,46.1 33.5,46.3 33.6,46.3 33.7,46.3 34.6,45.7 35,45.5 35.7,45.2 36.2,45.1 36.5,45 37.3,45.1 37.7,45.2 38.1,45.4 38.5,45.6 
	38.8,45.9 39.2,46.4 39.3,46.8 39.3,47.2 39.3,47.7 39,48 38.8,48.4 38.3,48.7 37.8,48.9 37.7,49 37.8,49.2 37.9,49.2 38.2,49.2 
	38.7,49.2 39.2,49 39.5,48.7 40,48.3 40.2,47.9 40.3,47.4 40.4,47 40.3,46.5 40.2,46.2 40,45.8 39.9,45.6 40,45.6 40.6,46.1 
	40.9,46.3 41.6,46.8 41.8,47 42.8,48 43.3,48.5 44.1,49.1 44.7,49.5 45.2,49.7 45.6,49.9 46.1,49.9 46.6,49.9 46.8,49.9 47.8,50.5 
	49,51.3 50.6,52.4 52.2,53.7 52.4,53.9 53.4,54.9 53.6,55 54.2,55.7 55.2,56.9 55.4,57.1 55.7,57.4 56.4,58.5 56.6,58.7 57.9,60.6 
	58.3,61.4 59,62.8 59.5,63.8 59.6,64 60,65 60.6,66.7 61.1,68.5 61.3,69.3 61.6,70.7 61.9,72.6 62,73.8 62,74.1 62,74.8 62.1,75.3 
	62,75.5 62.1,75.8 62.1,78.1 62.1,79 62.1,80 62,80.8 62,81.5 62,81.6 61.9,82.2 61.8,83 61.4,85.3 61.3,87.2 61.2,87.7 61.2,90.1 
	61.3,92.6 61.2,93.8 61.1,94.5 60.9,96.1 60.7,96.4 60.6,96.4 60.6,96.3 60.2,95 59.7,93.9 59.5,92.9 59.4,91.6 59.5,89 59.4,87.9 
	59.1,85.9 58.8,84.6 58.7,84.2 58.6,83.2 58.6,81.9 58.7,81.1 58.8,80.5 58.8,79.7 58.8,79.1 58.5,78.3 58.3,77.8 58,77.5 
	57.7,77.1 57.4,76.9 57.1,76.8 56.7,76.8 56.4,76.9 56,77.1 55.7,77.5 55.5,77.9 55.2,78.7 55.1,79.4 54.9,80.7 54.7,81.6 
	54.5,82.1 54.2,83.5 54.1,84.2 54.2,84.8 54.3,85.2 54.3,85.7 54.5,86.4 54.5,86.9 54.7,87.2 55,89 55.1,90 55.1,90.4 55,90.9 
	54.8,91.3 54.5,91.5 54.3,91.7 54.1,91.7 53.8,91.7 53.6,91.7 53.4,91.4 53.1,91.2 53,90.9 52.9,90.4 52.9,89.8 52.9,89.2 53,88.4 
	53.6,86 53.8,85.1 53.9,84.2 53.9,83.5 53.8,82.9 53.6,82.3 53.4,81.7 52.9,80.9 52.2,80.1 51.5,79.5 50.7,78.8 49.5,78.1 
	48.8,77.5 48.4,77.1 48,76.6 47.5,75.7 46.8,74.7 46.2,74.1 45.6,73.7 45.2,73.6 44.7,73.4 44.4,73.4 43.7,73.4 43.1,73.6 
	42.7,73.8 42.3,74.1 41.9,74.4 41.6,74.9 41.4,75.3 41.1,75.7 40.9,76.6 40.7,77.8 40.7,79.7 40.7,79.9 40.7,81.3 40.5,82.5 
	40.3,83.5 40,84.5 39.5,85.4 39.3,86.2 38.8,87.4 38.6,88.3 38.5,88.6 38.5,88.6 38.2,87.5 37.7,86.3 37.3,85.3 36.7,84.2 
	36.3,83.5 35.8,82.6 35.5,81.8 35.2,80.9 34.8,79.4 34.5,77.1 34.1,75.9 33.9,75.2 33.6,74.8 33.4,74.5 33.3,74.4 33.1,74.2 
	32.8,74.1 32.5,74 32.2,74 31.8,74.1 31.5,74.3 31.3,74.7 31,75.4 30.6,76.3 30.3,76.8 29.9,77.4 28.8,78.4 28.4,78.9 28.2,79.3 
	28.1,79.9 28,80.4 28,81.7 28,83.3 28.6,86.4 28.7,87.5 28.6,87.9 28.5,88.4 28.3,88.6 28.1,88.9 27.9,88.9 27.6,88.9 27.5,88.8 
	27.3,88.6 27.1,88.4 27,88 27,87.7 27,86.7 27.2,85.8 27.6,84 27.7,83 27.8,82.1 27.7,81.3 27.5,80.4 27.2,79.5 27,78.7 26.8,77.7 
	26.8,76.9 26.6,76.3 26.3,75.7 26.1,75.1 25.7,74.7 25.3,74.3 24.9,74.2 24.5,74.1 24.4,74.1 23.9,74.1 23.4,74.2 22.9,74.4 
	22.4,74.8 21.6,75.6 20.9,76 20.4,76.2 19.5,76.5 18.2,76.9 17.6,77.1 17.2,77.4 16.6,78 16.2,78.5 16,79 15.8,79.5 15.6,80.2 
	15.5,81.2 15.6,82 15.6,83.3 15.5,84.5 15.3,85.1 14.4,87.2 14.1,88.2 14,88.2 13.9,87.9 13.9,87.4 13.4,86.1 13.2,85.5 12.9,84.6 
	12.7,83.7 12.5,82.8 12.4,80.9 12.3,80.2 12.2,79.9 12,79.7 11.8,79.7 11.5,79.7 11.4,79.8 11.2,80 11.1,80.4 10.8,81.1 10.6,82.9 
	10.4,83.7 10,84.4 9.9,84.7 9.6,85.6 9.4,86.2 9.4,86.3 9.3,86.5 9.2,86.5 9,86.3 8.9,86 8.7,85.3 8.2,83.9 8,83.5 7.9,82.3 
	7.9,81.3 7.8,81 7.7,80.9 7.5,80.8 7.3,80.9 7.1,81.1 7,81.3 6.8,82 6.7,83 6.6,83.6 6.6,84.2 6,86.4 5.6,88.2 5.2,89.7 5.1,90.9 
	5,91.9 5.1,93 5.2,94.1 5.2,94.3 5.3,94.7 5.7,97 6.1,98.9 6.2,100.2 6.1,100.9 6.1,101.5 5.9,102.1 5.7,102.5 5.5,102.5 5.2,102.7 
	"/>
<polygon class="st3" points="33.9,102.2 33.8,102.2 33.8,102.2 33.9,102.2 34,102.2 "/>
<polygon class="st3" points="30.8,102 30.3,102 30.3,101.9 30,101.5 29.9,101.3 29.8,100.5 29.9,99.9 29.8,99.9 29.6,99.8 
	29.2,99.7 29.1,99.6 28.8,99.2 28.7,98.8 28.7,98.6 28.9,98.5 29,98.3 29.1,98.2 28.9,97.8 28.9,97.7 29.2,97.6 29.9,97.6 
	30.1,97.5 30.1,97.3 30.1,97.2 29.9,97.1 29.5,97.1 29,97.2 28.9,97.2 28.8,97 28.8,96.8 28.8,96.7 28.9,96.6 29.2,96.7 29.4,96.6 
	29.7,96.4 30.1,95.9 30.1,95.8 30.1,95.6 29.9,95 29.5,94.3 29.3,93.9 29.2,93.6 28.9,93.3 28.8,93.1 28.9,92.7 28.9,92.6 
	28.9,92.4 28.7,92.2 28.5,91.8 28,91.2 27.7,91 27.3,90.6 27.3,90.6 26.8,90.6 26.7,90.5 26.6,90.5 26.3,90.5 26,90.5 25.6,90.3 
	25,90 24.9,90 24.9,89.9 25,89.8 26.1,89.6 26.2,89.4 26.2,89.3 26.1,89.1 25.9,89.1 24.7,89.5 24.5,89.5 24.5,89.4 24.2,89.3 
	24.1,89.2 23.8,89.2 23.5,89.3 23,89.3 22.5,89.3 22.1,89.4 21.6,89.7 21,89.8 20.7,90 20.5,90 20.5,90.3 20.3,90.5 19.9,90.5 
	19.8,90.6 19.8,90.9 19.6,91 19.6,91.2 19.6,91.4 19.5,91.4 19.1,91.7 18.8,91.9 18.6,92.3 18.3,92.6 17.5,93.1 17.2,93.4 17,93.8 
	16.8,94.3 16.7,94.5 16.5,95 16.5,95 16.5,95.2 16.6,95.6 16.7,95.8 16.9,96.1 17,96.3 16.9,96.4 16.9,96.4 16.5,96.4 15.9,96.1 
	15.7,96.1 15.5,96.2 15.5,96.4 15.5,96.4 15.8,96.6 16.9,96.9 16.9,97 16.9,97.1 16.9,97.3 17,97.4 17.2,97.6 17.2,97.8 17,97.9 
	16.5,98.2 16.3,98.3 16.2,98.7 16.2,99 16,99 15.9,99 15.4,98.7 13.7,97.8 11.8,96.6 10.8,95.9 10.1,95.2 10,95.1 10,94.8 
	10.1,94.5 10.2,94.5 10.4,94.5 11.5,95 11.7,95 11.8,94.9 11.8,94.7 11.7,94.6 10.4,94 10.3,93.8 10.2,93.8 10.3,92.7 10.2,91.9 
	10.2,91.8 10.4,91.7 10.7,91.7 11.1,91.7 12.1,91.7 12.2,91.6 12.3,91.5 12.3,91.4 12.2,91.3 12,91.3 10.3,91.3 10.1,91.3 
	10.1,91.2 9.9,90.4 9.6,89.8 9.6,89.6 9.6,89.6 10,89.3 12.5,87.9 12.7,87.7 12.7,87.5 12.7,87.5 12.5,87.5 12.1,87.7 10.1,88.9 
	9.5,89.1 9.4,89.2 9.2,89.1 9,88.7 8.4,88 7.7,87.4 7.2,87 7.1,86.8 7.2,86.3 7.3,85.3 7.4,84.8 7.5,84.6 7.5,84.7 7.9,86.1 
	8.2,86.9 8.6,87.7 9,88.2 9.4,88.6 9.4,88.6 9.5,88.6 9.7,88.2 9.9,87.7 10.2,87 10.5,86 10.7,85.4 10.9,85 11.3,84 11.5,83.3 
	11.6,82.6 11.6,82.5 11.7,82.6 11.8,83.2 11.9,83.7 12.1,84.9 12.5,86.1 12.7,86.7 12.9,87.3 13.1,88.2 13.1,89 13.1,89.6 
	12.9,90.6 12.2,92.7 12,94.2 12,94.7 12.1,95.2 12.2,95.7 12.5,96.1 12.7,96.4 13,96.6 13.4,96.9 13.7,96.9 14.1,96.9 14.5,96.7 
	14.8,96.5 15.1,96.2 15.3,95.9 15.5,95.3 15.7,94.7 15.7,94 15.5,93.1 15,90.1 15,89.8 15,88.9 15.2,88 15.6,87 16.1,86 16.5,84.9 
	16.7,84 16.9,83 16.9,81.9 16.8,81.6 16.9,80.8 16.9,80.2 17.1,79.7 17.2,79.5 17.5,79 17.9,78.8 18.4,78.4 19.3,78.1 20.3,77.8 
	21.2,77.4 21.8,76.9 23,76.1 23.5,75.7 24,75.5 24.3,75.5 24.6,75.5 24.9,75.7 25.2,75.7 25.4,76.1 25.5,76.5 25.9,78.4 26.1,79.3 
	26.6,80.2 26.7,80.7 26.8,81.5 26.8,82.2 26.7,83.1 26.4,84.5 26.2,85.1 26,86 25.9,86.8 25.9,87.8 26,88.4 26.2,88.9 26.5,89.3 
	26.8,89.7 27.2,90 27.5,90.1 27.8,90.2 28.2,90.1 28.7,90 29,89.8 29.3,89.6 29.6,89.2 29.8,88.7 29.9,88.2 30,87.7 29.9,87 
	29.7,85.8 29,82.5 29,82.2 29,81.2 29.2,80.6 29.3,80.3 29.5,79.9 29.8,79.7 30.6,79 31,78.5 31.4,78.1 31.6,77.6 31.8,76.9 
	32,76.6 32.2,76.4 32.4,76.4 32.6,76.4 32.8,76.7 33.1,77.1 33.4,77.8 33.6,78.9 33.9,80.1 34.1,80.9 34.3,81.7 34.6,82.6 35,83.3 
	35.1,83.5 35.4,84.1 36.2,85.6 37.1,87.6 37.5,88.6 37.8,89.9 37.9,90.8 37.9,91.7 37.8,92 37.8,92.1 37.6,92.1 37.3,92 37.1,91.8 
	37,91.6 36.9,91.2 36.8,91 36.6,91 36.4,91 35.9,91.3 35.6,91.6 35.3,91.8 34.5,92.1 34.1,92.4 33.8,92.4 33.4,92.4 33.3,92.4 
	33.1,92.2 33,91.8 33,91.4 33.1,91 33,90.7 32.7,90.5 32.5,90.4 32.3,90.3 31.9,90.4 31.4,90.3 31.1,90.3 30.2,90.7 29.9,90.6 
	29.8,90.7 29.7,90.8 29.6,90.8 29.4,90.5 29.3,90.1 29.2,90 29.1,90 28.9,90 28.9,90.3 29.3,91.4 29.4,91.7 29.3,91.9 29,92.2 
	29,92.4 29,92.6 29.4,92.8 29.6,92.9 29.7,93.1 29.9,93.8 30.3,95.2 30.6,96.8 30.6,97.3 30.7,97.4 30.8,97.6 31,98.5 31.3,100.9 
	31.5,101.8 31.4,101.9 31.1,102 "/>
<polygon class="st3" points="32,101.9 31.9,101.8 31.9,101.7 31.8,100.8 31.8,100.8 32,101 32.2,101.1 32.8,101.1 33.1,101.1 
	33.1,101.1 33.1,101.2 33,101.5 33,101.7 32.9,101.8 32.2,101.8 "/>
<polygon class="st3" points="33.7,101.7 33.5,101.6 33.5,101.5 33.6,101.3 34.1,100.6 34.2,100.4 34.6,99.9 34.9,99.7 35.3,99.5 
	35.4,99.5 35.5,99.7 35.5,99.7 35.5,99.9 35.4,100.2 35,100.7 34.8,101.2 34.4,101.5 33.9,101.7 "/>
<polygon class="st3" points="31.8,100.6 31.7,100.6 31.7,100 31.3,97.8 31.2,97.3 32.1,97.1 32.7,97.1 33.8,96.8 34,96.8 34.2,97 
	34.2,97.1 34.2,97.5 34.3,97.7 34.4,97.8 34.6,98 34.6,98.1 34.6,98.3 33.3,99.7 33.1,100.1 32.9,100.4 32.5,100.4 32,100.4 
	31.9,100.5 "/>
<polygon class="st3" points="15.6,99.4 15.2,99.4 14.8,99.3 14.6,99.2 14,98.7 13.8,98.6 12.9,97.8 12.7,97.8 12.2,97.9 12,97.8 
	11.6,97.5 10.5,96.4 10,95.9 9.9,95.7 10,95.7 11.1,96.4 11.5,96.7 13.3,98 14.1,98.5 15.2,99.1 15.6,99.3 15.7,99.4 "/>
<polygon class="st0" points="32,98.6 31.8,98.5 31.6,98.4 31.5,98.2 31.6,98 31.7,97.9 32,97.8 32.4,97.7 32.8,97.7 32.9,97.8 
	33,97.9 33,98.2 32.9,98.4 32.8,98.5 32.4,98.4 "/>
<polygon class="st3" points="31.4,96.9 31.2,96.9 31,96.7 30.8,95.3 30.5,94 30.5,93.8 30.6,93.8 30.9,93.9 31.2,93.9 31.3,93.8 
	31.5,93.7 31.6,93.7 32,93.8 32.2,93.9 32.3,94 32.6,94.6 32.8,94.9 32.8,95 32.8,95.3 32.9,95.4 33.1,95.7 33.2,96.1 33.4,96.3 
	33.4,96.4 33.2,96.4 32.2,96.6 "/>
<polygon class="st4" points="13.9,95.5 13.7,95.5 13.4,95.4 13.2,95.2 13.1,94.9 13.1,94.6 13.1,93.9 13.3,92.6 13.9,89.6 
	13.9,89.5 14,89.6 14.5,93.1 14.5,93.9 14.5,94.7 14.4,95.1 14.2,95.4 14.1,95.5 "/>
<polygon class="st3" points="9.4,95.1 9.3,95 9,94.7 8.3,93.8 7.7,92.9 7.5,92.5 7,91.7 6.4,90.7 6.2,90.2 6.1,90 6.3,89.5 
	6.6,88.5 6.8,87.8 7,87.5 7.1,87.5 7.2,87.5 7.8,87.9 8.1,88.3 8.7,89 9,89.6 9.3,90.2 9.6,90.9 9.7,91.4 9.9,92.3 9.9,93.2 9.8,94 
	9.6,94.9 9.5,95 "/>
<polygon class="st3" points="45.4,92.6 45.1,92.5 44.9,92.4 44.6,92.4 44.4,92.3 44.4,92.2 44.4,92 44.4,91.9 44.6,91.9 44.8,91.8 
	45,91.6 45.2,91.3 46.1,90.7 46.3,90.6 46.3,90.7 46.3,90.7 46,91.2 45.7,91.5 45.6,91.7 45.6,91.9 45.8,91.9 46,91.9 46.5,91.8 
	46.8,91.7 47.5,90.7 47.6,90.6 47.7,90.4 47.8,90.1 48,90 48.2,89.9 48.4,89.9 48.5,89.8 48.6,89.7 48.6,89.3 48.7,89.1 49.1,88.8 
	49.3,88.6 49.7,88.5 50.1,88.2 50.2,88.2 50.4,88.1 50.9,88.1 51.2,88 51.3,87.9 51.5,87.9 51.6,88.1 51.6,88.3 51.5,88.5 
	51.1,88.6 50.8,88.8 50.4,89.1 49.8,90 49.4,90.3 49.2,90.4 48.9,90.5 48.8,90.5 48.6,90.5 48.3,90.8 48,91.1 47.7,91.7 47.5,92.1 
	47.3,92.3 47.1,92.4 46.8,92.4 46.5,92.4 46.3,92.2 46.1,92.2 45.9,92.4 45.8,92.5 45.5,92.5 "/>
<polygon class="st3" points="57.8,92.2 57.7,92.1 57.7,91.9 57.7,91.7 57.7,91.3 57.7,91.1 57.5,90.9 57.3,90.7 57.3,90.7 
	57.3,90.5 57.5,90.1 57.6,89.9 57.6,89.6 57.6,89.3 57.4,89 57.3,88.8 57.3,88.5 57.6,87.7 57.6,87.5 57.6,87.3 57.4,87.2 57,86.9 
	56.9,86.7 56.9,86.5 57,86.3 57.3,85.7 57.6,85.2 57.6,84.9 57.5,84.9 57.3,84.9 57.1,85.3 56.9,85.8 56.6,86.3 56.4,86.3 
	56.3,86.3 55.9,86.2 55.7,86.1 55.5,86 55.4,85.8 55.2,85 55.2,84.5 55.2,83.6 55.2,82.8 55.5,81.8 55.9,80.7 56,80.3 56,79.4 
	56.2,79 56.4,78.7 56.6,78.5 56.8,78.4 57,78.4 57.3,78.5 57.4,78.8 57.6,79.1 57.8,79.7 57.8,80.2 57.8,81.2 57.8,82.3 57.7,82.9 
	57.7,83.5 57.8,84.9 58,85.6 58.2,86.3 58.4,87.5 58.5,88.7 58.5,90 58.5,91 58.4,91.2 57.9,92 "/>
<polygon class="st3" points="41.1,92.1 41,92 40.6,91.8 40.4,91.6 40.2,91.6 39.8,91.7 39.5,91.7 39.4,91.6 39.3,91.4 39.3,90.7 
	39.4,90.5 39.5,90.5 40,90.5 40.2,90.5 40.4,90.5 40.6,90.7 40.9,91.3 41.1,91.6 41.2,91.9 41.2,92 "/>
<polygon class="st3" points="41.9,91.9 41.8,91.9 41.6,91.7 40.9,90.5 40.9,90.3 40.9,90 41.1,89.8 41.2,89.6 41.4,89.6 41.8,89.6 
	42,89.6 42.4,88.9 42.7,88.6 42.8,88.6 43.2,88.6 43.2,88.6 43.3,88.4 43.2,88.2 42.9,88.1 42.7,88 42.4,88.1 42.1,88.2 41.8,88.1 
	41.4,87.9 41.3,88 41.1,88.2 40.7,88.4 40.5,88.6 40,88.6 40,88.6 39.9,88.4 39.8,88.2 39.7,88.2 39.8,88 40.7,86.2 41.1,84.9 
	41.5,83.8 41.6,83 41.8,81.8 41.9,79.5 42,77.8 42.1,77.1 42.3,76.5 42.6,75.9 42.9,75.5 43.2,75.2 43.7,75 44.1,74.9 44.6,74.9 
	44.9,75 45.4,75.1 46,75.5 46.3,75.9 46.8,76.6 47.5,77.9 47.9,78.5 48.2,78.9 48.9,79.5 49.6,79.9 50.9,80.7 51.9,81.3 52.3,81.8 
	52.7,82.3 53,83 53.1,83.4 53.1,84.2 53,85.2 52.9,85.6 52.9,85.7 52.8,85.7 52.5,85.7 52.4,85.7 52.1,85.7 51.5,85.8 51.3,85.8 
	51.3,85.7 51.5,85.4 52.4,84.3 52.8,83.7 52.9,83.5 52.9,83.2 52.7,83.2 52.6,83.2 52.1,83.9 51.1,85.2 50.9,85.4 50.8,85.4 
	50.5,85.2 48.7,83.5 46.8,81.2 46.5,80.9 45.4,79.6 45.2,79.3 45.3,79.2 45.5,79 46.1,78.4 46.8,77.7 47,77.6 46.9,77.4 46.8,77.4 
	46.7,77.4 45.6,78.3 45.1,78.8 44.9,78.8 44.8,78.8 44.2,78.1 43.7,77.4 43.5,77 43.1,76.4 43,76.3 42.9,76.2 42.8,76.2 42.8,76.3 
	42.7,76.4 42.7,76.6 42.9,76.9 44.3,78.8 44.4,79 44.5,79.1 44.4,79.3 43.1,80.4 42.3,81 42.1,81.2 42.1,81.3 42.2,81.4 42.3,81.4 
	42.6,81.2 43.7,80.4 44.3,79.9 44.7,79.6 44.8,79.6 44.9,79.6 45.2,79.9 46.3,81.3 46.6,81.6 47.4,82.5 49.8,85.2 49.9,85.3 
	50.3,85.7 50.4,85.8 50.3,85.9 49.4,86.1 49.1,86.2 48.9,86.1 48.5,86 48.3,86 48,85.8 47.9,85.8 47.6,85.8 47,86 46.8,86.2 
	46.6,86.3 46.1,87 45.8,87.2 45.6,87.3 45.4,87.6 45.2,87.8 45.2,88.1 45.2,88.4 45.3,88.6 45.5,88.6 45.6,88.7 46.4,88.6 
	46.5,88.7 46.5,88.9 46.3,89.6 46.3,90 46.2,90.1 45.5,90.7 45.4,90.7 45.1,90.7 44.7,90.5 44.3,90.4 44,90.4 43.8,90.5 43.7,90.7 
	43.2,91.5 43.1,91.7 43,91.7 42.6,91.6 42.5,91.6 42.1,91.8 "/>
<polygon class="st0" points="16,91.4 15.7,91.4 15.6,91.4 15.5,91.3 15.6,91.2 15.9,91.1 17.4,90.9 19.2,90.6 19.3,90.5 19.3,90.4 
	19.1,89.8 18.5,88.3 17.9,87 17.6,86.3 17.2,85.4 17.1,85.3 16.9,85.3 16.7,85.3 16.7,85.3 16.6,85.2 16.7,85.1 16.8,84.9 
	16.9,84.8 16.8,84.6 16.9,84.4 17,84.4 17.2,84.6 17.4,84.6 18.6,83.9 19.5,83.5 22.1,82 24.2,80.7 24.5,80.5 24.5,80.4 24.4,80.2 
	24,79.4 23.3,78.3 23,77.8 22.6,77.2 22.6,77.1 22.6,76.9 22.7,76.9 22.8,76.9 23,77.2 23.8,78.3 24.6,79.6 24.8,80 24.9,80.2 
	25.2,80.2 25.8,79.8 26,79.7 26.1,79.9 26.1,80 26,80.2 25.4,80.5 25.3,80.6 25.2,80.9 25.4,81.1 26.3,82.8 26.5,83.2 26.5,83.5 
	26.4,83.6 26.3,83.6 26.3,83.5 26,83.2 25.1,81.3 24.8,80.9 24.7,80.9 24.2,81.1 23.7,81.5 23.2,81.8 23,81.9 22.8,82 20.6,83.2 
	17.6,84.9 17.5,85.1 17.5,85.2 18.3,86.7 18.7,87.8 19.1,88.6 19.7,90.4 19.7,90.5 19.5,90.7 19.5,91 19.3,91 17.2,91.3 "/>
<polygon class="st3" points="20.2,91.2 20,91.2 20,91.1 20,91 20.1,91 20.2,90.9 20.5,90.9 20.5,91 20.5,91.1 20.2,91.2 "/>
<polygon class="st0" points="30.3,87.9 30.2,87.9 30.2,87.7 30.3,87.7 30.6,87.5 31.3,87.2 33.1,86.4 34.8,85.6 35.5,85.2 
	35.7,85.2 35.8,85.3 35.8,85.4 35.7,85.5 35.3,85.8 33.1,86.8 31.6,87.5 30.5,87.9 "/>
<polygon class="st4" points="18.6,49.1 18.1,49.1 17.6,48.9 17.4,48.7 17.2,48.5 17,48.2 16.9,47.6 16.9,47.1 17.1,46.5 17.2,46.1 
	17.7,45.3 18.2,44.7 18.6,44.5 19.5,43.8 20.6,43.2 21.6,42.8 23.2,42.3 24,42.3 25.2,42.2 26.1,42.3 26.8,42.5 27.5,42.7 
	28.4,43.1 29,43.4 29.8,44 30.4,44.6 30.7,45.1 30.7,45.2 30.6,45.1 30,44.7 29.1,44.2 28.3,44 27.5,43.8 26.6,43.7 25.6,43.7 
	24.7,43.8 24,44.1 23.2,44.5 22.5,44.9 22.1,45.2 21.5,45.9 20.8,46.9 20.2,48 19.7,48.6 19.3,48.8 18.9,49 "/>
<polygon class="st4" points="46.1,48.7 45.6,48.7 45.3,48.5 44.7,48.2 43.5,47.1 42.6,46.3 42.1,45.9 41.7,45.6 40.8,44.9 
	40.2,44.7 39.2,44.2 38.3,44 37.5,44 36.9,44 36.3,44.1 35.5,44.4 35.3,44.5 35.3,44.4 35.4,44.2 35.7,44 36.6,43.5 37.4,43.2 
	38.6,42.9 39.3,42.8 40.1,42.7 41.4,42.7 42.3,42.8 43.3,43.1 44,43.3 44.7,43.6 45.3,44 46.1,44.7 46.6,45.2 47,45.8 47.2,46.3 
	47.2,46.7 47.2,47.3 47.2,47.6 47,48 46.8,48.3 46.5,48.5 "/>
<polygon class="st0" points="36.9,48.3 36.7,48.2 36.6,48.1 36.4,47.7 36.1,47.3 35.8,47 35.3,46.8 35,46.7 34.6,46.7 34.2,46.8 
	34.1,46.8 34.1,46.6 34.2,46.5 34.4,46.3 34.8,46.1 35.1,46 35.5,46 36,46.1 36.2,46.3 36.5,46.6 36.7,46.8 36.8,47.2 36.9,48.2 "/>
<polygon class="st4" points="30.8,44 30.6,43.9 30.1,43.4 29.3,42.8 28.5,42.2 27.7,41.8 26.8,41.5 25.8,41.2 25,41.2 24.7,41.1 
	23.7,41.2 22.7,41.3 21.5,41.6 20.4,42.1 19.9,42.1 19.5,42.1 19.2,42 19,41.8 18.8,41.6 18.8,41.3 18.8,40.8 19,40.4 19.3,40 
	19.6,39.8 20.1,39.4 20.6,39.2 21.3,39 22.1,38.8 22.6,38.7 23.6,38.8 24.6,38.9 25.5,39.2 26.8,39.8 27.7,40.5 28.6,41.1 29.5,42 
	30,42.6 30.6,43.5 30.8,43.9 30.8,44 "/>
<polygon class="st4" points="34.7,43.8 34.7,43.7 34.8,43.3 35.5,42.5 36.6,41.3 37.4,40.6 38.4,40 39.5,39.3 40.6,39 41.4,38.8 
	41.8,38.8 42.7,38.8 43.2,38.8 43.5,39.1 43.9,39.3 44.1,39.5 44.3,39.8 44.4,40 44.4,40.4 44.2,40.7 44,41 43.5,41.2 42.9,41.4 
	42.3,41.5 39.7,41.6 38.7,41.8 38.1,42 37.2,42.3 36.5,42.6 35.6,43.1 34.8,43.7 "/>
<polygon class="st4" points="34.3,42.8 34.3,42.8 34.3,42.6 34.6,41.5 34.9,40.4 35.5,39.2 36,38.1 36.4,37.5 37.2,36.7 37.5,36.4 
	38.1,36 38.5,35.6 39.3,35.3 39.7,35.3 40.2,35.3 40.6,35.4 40.9,35.6 41.1,35.8 41.2,36.2 41.2,36.5 41.1,36.8 40.9,37.2 
	40.5,37.5 39.9,37.9 39,38.4 38.2,38.8 37.6,39.2 36.4,40 35.7,40.7 35.2,41.4 34.7,42.2 34.4,42.7 "/>
<polygon class="st4" points="30.8,42.8 30.8,42.6 30.2,41.8 29.8,41.2 29,40.4 28,39.5 26.8,38.8 24.9,37.8 24.5,37.4 24.2,37.2 
	24,36.7 23.9,36.5 23.9,36.1 24,35.8 24.2,35.5 24.5,35.3 24.8,35.3 25.2,35.3 25.7,35.4 26.5,35.8 27.1,36.2 28,36.9 28.7,37.7 
	29.5,38.8 30,39.5 30.3,40.4 30.6,41.3 30.8,42.3 30.9,42.7 "/>
<polygon class="st3" points="28.7,28.6 28.5,28.6 28.2,28.4 28.1,28.1 28,28 28.1,27.7 28.2,27.3 28.7,26.1 29.4,24.9 30.5,23.3 
	31.8,21.7 32.4,21 33.2,20.3 34.5,19.1 36.3,17.8 37.6,17 39,16.2 40,15.8 40.7,15.6 41,15.6 41.3,15.9 41.4,16 41.4,16.2 
	41.2,16.3 40,16.8 38.8,17.5 38.1,18 37.8,18.2 36.5,19.1 36.1,19.4 35,20.3 33.6,21.6 32.4,22.8 32.1,23.3 31.6,23.9 30.6,25.3 
	29.8,26.4 28.9,27.9 28.7,28.5 "/>
<polygon class="st3" points="26.8,27.7 26.6,27.7 26.4,27.5 25.4,26.4 25.5,25.8 25.5,25.5 25.4,25.4 24.9,24.7 23.9,23.6 
	21.5,21.1 19,18.4 18.1,17.2 17.7,17 17.5,16.7 17.5,16.4 17.6,15.9 17.9,15 18.3,13.9 18.8,12.8 19.3,11.8 19.9,11.1 21.1,9.5 
	21.8,8.7 22.7,7.8 23.3,7.3 24.3,6.6 25.6,5.7 27.1,5 28.2,4.5 29.2,4.2 29.7,4.1 30.2,4.1 30.5,4.1 30.7,4.3 31.7,5.3 32,5.7 
	32.9,6.7 33.5,7.3 35.8,9.9 36.3,10.4 36.6,10.8 38.8,13.1 39,13.2 39.2,13.2 39.6,13.2 39.8,13.2 40,13.3 40.4,13.7 40.6,13.9 
	40.8,14.2 40.9,14.4 40.7,14.6 40.6,15.1 40.4,15.1 39.7,15.3 38.3,16 37.4,16.5 35.3,17.9 34.1,18.8 32.7,20 31.5,21.2 30.7,22.2 
	30.1,22.9 29.3,24.1 28.4,25.5 28,26.4 27.7,27 27.5,27.5 27.5,27.5 27.3,27.6 27,27.6 "/>
<polygon class="st3" points="24.6,27.5 24.5,27.4 24.1,27 24,26.8 23.1,25.6 22.6,24.7 22.1,23.9 22,23.6 22,23.5 22.1,23.6 
	22.8,24.3 24.1,25.7 24.3,26 24.4,26.2 24.2,26.8 24.3,27 24.6,27.4 "/>
<polygon class="st4" points="26.1,23.5 25.8,23.5 25.3,23.3 24.9,23.1 24.4,22.7 23.8,22.1 23,21.2 22.6,20.3 22.3,19.7 22.1,19.1 
	22.1,18.6 22.1,18.2 22.3,17.6 22.6,16.9 22.6,16.7 22.3,16.3 21.6,15.4 21.4,15 20.7,14.2 20.6,13.9 20.6,13.7 20.9,13.2 
	21.2,12.8 21.3,12.8 21.4,12.9 22.2,13.9 25.9,18.7 27,20.1 27.5,20.8 28,21.4 28,21.5 28,21.7 27.5,22.5 27.1,23 26.8,23.2 
	26.5,23.4 "/>
<polygon class="st3" points="26,21.8 25.6,21.8 25.3,21.6 24.9,21.4 24.5,20.9 23.9,20 23.7,19.5 23.5,19.1 23.5,18.9 23.5,18.6 
	23.5,18.3 23.6,18.2 23.8,18.2 24,18.4 26.1,21.2 26.3,21.4 26.3,21.6 26.1,21.7 "/>
<polygon class="st4" points="28.3,21.1 28.2,21 27,18.8 25.6,16.5 23.9,13.4 22.6,11 22.6,10.9 22.7,10.6 23.1,10.2 23.3,10 
	23.4,9.9 23.5,9.8 23.7,9.9 24.2,10.4 24.5,10.6 27.7,14.1 28.3,14.6 28.4,14.6 28.3,14.6 27.4,13.1 25,9.4 24.7,9 24.7,8.8 
	24.9,8.5 25.5,8.1 25.8,8 25.9,8 26.5,8.4 26.8,8.8 31.7,13.5 33.8,15.4 33.9,15.6 33.9,15.7 33.6,16 32.9,16.3 32.8,16.4 
	32.7,16.3 32.3,16 31.3,15 30.8,14.5 30.4,14 30.1,13.7 28.4,12 27.6,11 27.4,10.9 27.5,11.1 27.7,11.5 28.7,13 29.9,14.9 
	30.3,15.7 30.8,16.5 31.5,17.4 31.5,17.7 31.4,17.8 30.7,18.5 30.6,18.6 30.4,18.5 30.2,18.3 28.8,16.8 28,15.9 25.4,13.2 
	25.3,13.2 25.3,13.2 25.4,13.6 27.1,16.4 29.1,19.9 29.2,20.1 29.1,20.3 28.5,21 "/>
<polygon class="st3" points="16.9,15.9 16.8,15.9 16.5,15.6 16.5,15.3 16.5,15 16.5,14.6 16.9,13.6 17.3,12.6 17.9,11.5 19,9.9 
	19.2,9.6 19.8,9 20.2,8.5 20.3,8.3 21.2,7.3 21.6,6.9 22.1,6.6 22.6,6.2 23.8,5.2 25,4.5 26.2,3.8 27.4,3.3 28.4,3 29,2.9 29.3,2.9 
	29.4,3 29.8,3.3 29.9,3.4 29.8,3.5 28.8,3.7 27.7,4.1 26.2,4.8 25.2,5.3 23.7,6.3 22.6,7.2 21.8,7.8 21,8.8 19.9,10.1 19.2,11.1 
	18.3,12.5 17.6,13.8 17.3,14.7 16.9,15.8 "/>
<polygon class="st4" points="34.8,14.9 34.2,14.8 33.8,14.6 33.3,14.4 32.4,13.5 32.1,13.2 32,13 32.1,13 32.3,12.7 32.9,12.5 
	33.1,12.4 33.2,12.5 33.6,12.8 33.9,13.1 34.2,13.3 34.6,13.4 34.8,13.4 34.9,13.2 35,13 34.8,12.8 34.6,12.5 34.3,12.2 33.6,11.8 
	32.7,11.3 31.2,10.7 29.7,10 28.9,9.5 28.4,9 28.2,8.5 28,8.1 27.9,7.6 27.9,7.3 28,6.9 28.2,6.6 28.5,6.3 28.9,6.2 29.4,6 29.9,6 
	30.3,6.1 31,6.4 31.7,6.9 32.3,7.4 32.4,7.6 32.4,7.7 32,8 31.5,8.1 31.3,8.2 31.1,8.1 30.7,7.6 30.3,7.4 29.9,7.3 29.7,7.3 
	29.5,7.5 29.4,7.7 29.5,7.9 29.6,8.1 29.9,8.4 30.5,8.8 31.1,9.2 31.5,9.3 31.6,9.3 31.7,9.5 33.4,10.1 34.1,10.5 35,11 35.5,11.4 
	35.9,11.8 36.2,12.3 36.4,12.6 36.4,13.1 36.4,13.5 36.4,13.8 36.2,14.1 36,14.4 35.7,14.6 35.3,14.8 35,14.9 "/>
<polygon class="st3" points="40.8,12.2 40.6,12 40.3,11.8 40.1,11.7 39.8,11.7 39.7,11.8 39.5,11.8 39.1,11.4 38.4,10.6 37.1,9.3 
	37,9.2 37.2,9.2 38.1,9.7 39.3,10.6 40.2,11.3 40.7,12 40.8,12.2 "/>
<path class="st0" d="M50.8,110.9c1.9,0,3.4,1.5,3.4,3.4c0,1.9-1.5,3.4-3.4,3.4V117c1.4,0,2.5-1.1,2.5-2.7c0-1.6-1.1-2.7-2.5-2.7
	V110.9L50.8,110.9z M50.8,114.9l0.8,1.3h0.8l-1.1-1.7c0.6,0,1.1-0.3,1.1-1c0-0.8-0.6-1.1-1.5-1.1h-0.1v0.6h0.1c0.3,0,0.7,0,0.7,0.4
	c0,0.4-0.3,0.5-0.6,0.5h-0.1V114.9z M50.8,110.9L50.8,110.9v0.8l0,0c-1.3,0-2.5,1.1-2.5,2.7c0,1.6,1.1,2.7,2.5,2.7l0,0v0.8l0,0
	c-1.9,0-3.4-1.5-3.4-3.4C47.3,112.5,48.9,110.9,50.8,110.9L50.8,110.9z M50.8,112.5h-1.3v3.8h0.8v-1.6h0.4l0.1,0.3V114h-0.6v-0.9
	h0.6V112.5z"/>
<polygon class="st3" points="37.1,108.2 37,108.2 37,108.1 37.1,108.1 37.2,108.1 "/>
<g>
	<path class="st5" d="M21,58.8c-0.3,0.1-0.5,0.1-0.7,0.2c-0.2,0-0.5,0-0.8,0c-0.8,0-1.4-0.2-2-0.6c-0.5-0.5-0.9-1.1-0.9-2
		c0-0.9,0.3-1.5,0.8-1.9c0.5-0.5,1.2-0.7,2.1-0.7c0.3,0,0.5,0.1,0.7,0.1c0.2,0.1,0.5,0.1,0.8,0.2l-0.1,1.1c-0.4-0.3-0.9-0.4-1.3-0.4
		c-0.5,0-0.9,0.2-1.1,0.5C18.2,55.6,18,56,18,56.5c0,0.5,0.2,0.9,0.5,1.2c0.3,0.3,0.7,0.4,1.2,0.4c0.2,0,0.4,0,0.6-0.1
		c0.2,0,0.5-0.1,0.7-0.2L21,58.8z"/>
	<path class="st5" d="M26.2,57c0,0.7-0.2,1.2-0.6,1.5C25.2,58.9,24.7,59,24,59c-0.7,0-1.2-0.1-1.6-0.5c-0.4-0.3-0.6-0.9-0.6-1.5V54
		h1.4v2.9c0,0.3,0.1,0.7,0.2,0.9C23.5,58,23.7,58,24,58c0.3,0,0.5-0.1,0.7-0.3c0.1-0.2,0.2-0.5,0.2-0.9V54h1.3V57z"/>
	<path class="st5" d="M29.3,54h0.3c0.5,0,0.9,0.1,1.2,0.3c0.3,0.2,0.5,0.5,0.5,0.9c0,0.3-0.1,0.6-0.2,0.7c-0.1,0.2-0.4,0.3-0.7,0.5
		c0.7,0.1,1,0.5,1,1.1c0,0.5-0.2,0.9-0.5,1.1C30.5,58.8,30,59,29.4,59h-0.1v-1c0.3,0,0.4-0.1,0.5-0.1c0.1-0.1,0.2-0.2,0.2-0.4
		c0-0.3-0.1-0.4-0.3-0.5c-0.1,0-0.3-0.1-0.5-0.1v-1c0.1,0,0.3,0,0.3-0.1c0.2-0.1,0.3-0.2,0.3-0.4c0-0.2-0.1-0.3-0.3-0.4
		c-0.1-0.1-0.2-0.1-0.3-0.1V54z M27.3,54h2v0.9c-0.1,0-0.2,0-0.3,0h-0.4v1H29c0.1,0,0.3,0,0.3-0.1v1c-0.1,0-0.2,0-0.3,0h-0.4V58h0.4
		c0.1,0,0.2-0.1,0.3-0.1v1h-2V54z"/>
	<path class="st5" d="M34.4,54h0.4c0.5,0,0.9,0.1,1.2,0.3c0.3,0.2,0.5,0.5,0.5,0.9c0,0.7-0.3,1.1-1,1.2c0.1,0.1,0.3,0.1,0.3,0.2
		c0.1,0.1,0.2,0.4,0.5,0.9l0.5,1.4h-1.4L35,58c-0.1-0.4-0.3-0.7-0.4-0.9c-0.1-0.1-0.1-0.1-0.2-0.1v-1c0.2,0,0.3-0.1,0.4-0.1
		c0.2-0.1,0.3-0.3,0.3-0.5c0-0.3-0.1-0.4-0.3-0.5c-0.1-0.1-0.2-0.1-0.4-0.1V54z M32.4,54h2v0.9c-0.1,0-0.2,0-0.3,0h-0.3V56h0.3
		c0.1,0,0.3,0,0.3,0v1C34.3,57,34.2,57,34,57h-0.3v2h-1.3V54z"/>
	<polygon class="st5" points="37.5,54 41,54 41,54.9 38.8,54.9 38.8,55.9 40.9,55.9 40.9,56.9 38.8,56.9 38.8,58 41.1,58 41.1,59 
		37.5,59 	"/>
	<polygon class="st5" points="42.2,54 43.9,54 45.6,57.3 45.6,54 46.8,54 46.8,59 45.1,59 43.4,55.5 43.4,59 42.2,59 	"/>
	<polygon class="st5" points="27.9,60.3 29.2,60.3 29.2,64.3 31.3,64.3 31.3,65.2 27.9,65.2 	"/>
	<path class="st5" d="M34.6,60.3h0.9l1.9,5H36l-0.4-1h-0.9v-1h0.7l-0.7-1.9v0.1V60.3z M33.9,60.3h0.8v1.1L34,63.2h0.7v1h-0.9l-0.4,1
		H32L33.9,60.3z"/>
	<polygon class="st5" points="19.6,67.5 18.4,67.5 18.4,66.6 22.2,66.6 22.2,67.5 20.9,67.5 20.9,71.5 19.6,71.5 	"/>
	<rect x="23.3" y="66.6" class="st5" width="1.3" height="5"/>
	<polygon class="st5" points="26.1,66.6 29.6,66.6 29.6,67.5 27.4,67.5 27.4,68.5 29.5,68.5 29.5,69.4 27.4,69.4 27.4,70.6 
		29.7,70.6 29.7,71.5 26.1,71.5 	"/>
	<path class="st5" d="M32.9,66.6h0.4c0.5,0,0.9,0.1,1.1,0.3c0.3,0.2,0.5,0.5,0.5,0.9c0,0.7-0.3,1.1-0.9,1.2c0.1,0.1,0.2,0.1,0.3,0.2
		c0.1,0.1,0.2,0.4,0.4,0.9l0.5,1.4h-1.4l-0.3-0.9c-0.1-0.4-0.3-0.7-0.4-0.9c0-0.1-0.1-0.1-0.1-0.1v-1c0.1,0,0.3,0,0.4-0.1
		c0.2-0.1,0.3-0.2,0.3-0.5c0-0.3-0.1-0.4-0.3-0.5c-0.1-0.1-0.3-0.1-0.4-0.1V66.6z M30.9,66.6h2v1c-0.1-0.1-0.2-0.1-0.3-0.1h-0.3v1.2
		h0.3c0.1,0,0.2-0.1,0.3-0.1v1c-0.1-0.1-0.3-0.1-0.4-0.1h-0.3v2h-1.4V66.6z"/>
	<path class="st5" d="M38.2,66.6h0.4c0.5,0,0.9,0.1,1.2,0.3c0.3,0.2,0.5,0.5,0.5,0.9c0,0.7-0.3,1.1-1,1.2c0.1,0.1,0.3,0.1,0.3,0.2
		c0.1,0.1,0.2,0.4,0.5,0.9l0.5,1.4H39l-0.3-0.9c-0.1-0.4-0.3-0.7-0.4-0.9c-0.1-0.1-0.1-0.1-0.2-0.1v-1c0.2,0,0.3,0,0.4-0.1
		c0.2-0.1,0.3-0.2,0.3-0.5c0-0.3-0.1-0.4-0.3-0.5c-0.1-0.1-0.2-0.1-0.4-0.1V66.6z M36.2,66.6h2v1c-0.1-0.1-0.2-0.1-0.3-0.1h-0.3v1.2
		h0.3c0.1,0,0.3-0.1,0.3-0.1v1c-0.1-0.1-0.2-0.1-0.4-0.1h-0.3v2h-1.3V66.6z"/>
	<path class="st5" d="M43.8,66.6h0.9l2,5h-1.5l-0.3-1h-1v-1h0.7l-0.6-1.9l-0.1,0.1V66.6z M43,66.6h0.8v1.1l-0.6,1.8h0.6v1h-0.9
		l-0.4,1h-1.4L43,66.6z"/>
</g>
</svg>
